<svg xmlns="http://www.w3.org/2000/svg" viewBox="0 0 327.83 319.31"><defs><style>.cls-1{fill:#f6ad01;}.cls-2{fill:#fff;}</style></defs><g id="Layer_2" data-name="Layer 2"><g id="Layer_1-2" data-name="Layer 1"><rect class="cls-1" x="31.6" y="35.95" width="264.62" height="247.4" rx="24" transform="translate(-51.46 82.37) rotate(-24.51)"/><path class="cls-2" d="M167.62,166.67a2.57,2.57,0,0,0,.57.57l-12.82-76c-.16-.83.22-1,.83-1.25l25.33-11.49,25.76-11.79c.59-.27.83-.21,1.07.36L262.8,184.79a2,2,0,0,1,.33.79,2.13,2.13,0,0,1,0,.87,3,3,0,0,1-1.58,1.09l-18.28,8.28c-5.13,2.33-10.26,4.7-15.41,7-.62.28-1.26.54-1.86.83a2.08,2.08,0,0,1-.52.25,2.41,2.41,0,0,1-.59.14,1,1,0,0,1-.44-.14,1,1,0,0,1-.32-.33l-33.9-80.7c4.81,29.67,9.74,59.33,14.57,89a2.12,2.12,0,0,1-.35,1.45,2.17,2.17,0,0,1-1.22.88c-8.37,3.82-16.76,7.59-25.13,11.44a4.3,4.3,0,0,0-1.42.62,15.23,15.23,0,0,1-2.06.82,1,1,0,0,1-.48,0,1.19,1.19,0,0,1-.44-.21l-58.86-69.93,39.37,77.9a1.53,1.53,0,0,1,.23.68,1.43,1.43,0,0,1-.1.71,2.51,2.51,0,0,1-1,.71q-15.06,6.79-30.09,13.67a13.2,13.2,0,0,1-1.36.53c-.55.37-1.19.52-1.74.83a1.41,1.41,0,0,1-.44.14c-.4.14-.79.36-1.23.11a6.57,6.57,0,0,1-1.39-2.4L64.23,133.45c-.65-1.43-.66-1.43.76-2.08l52.43-23.87a.91.91,0,0,1,.4-.18,1.14,1.14,0,0,1,.45,0,1,1,0,0,1,.39.2,1.09,1.09,0,0,1,.28.36Z"/></g></g></svg>